<?xml version="1.0" standalone="no"?>
<!DOCTYPE svg PUBLIC "-//W3C//DTD SVG 20010904//EN"
 "http://www.w3.org/TR/2001/REC-SVG-20010904/DTD/svg10.dtd">
<svg version="1.0" xmlns="http://www.w3.org/2000/svg"
 width="907.000000pt" height="1280.000000pt" viewBox="0 0 907.000000 1280.000000"
 preserveAspectRatio="xMidYMid meet">
<metadata>
Created by potrace 1.15, written by Peter Selinger 2001-2017
</metadata>
<g transform="translate(0.000000,1280.000000) scale(0.100000,-0.100000)"
fill="#000000" stroke="none">
<path d="M4887 12785 c-106 -15 -124 -29 -200 -153 -50 -83 -67 -103 -67 -83
0 6 -4 11 -10 11 -5 0 -10 -7 -10 -15 0 -8 -9 -19 -21 -25 -18 -10 -20 -19
-17 -61 1 -27 1 -49 0 -49 -2 0 -13 10 -23 23 l-20 22 6 -32 c5 -26 3 -33 -9
-33 -18 0 -21 -10 -40 -122 -9 -48 -27 -115 -42 -150 -16 -39 -27 -85 -29
-121 -2 -53 -8 -66 -61 -145 -32 -48 -102 -141 -155 -208 -53 -66 -102 -132
-109 -145 -7 -13 -16 -69 -20 -124 -4 -55 -11 -108 -15 -117 -5 -13 11 -36 64
-92 44 -46 71 -83 71 -97 0 -12 10 -54 21 -93 18 -59 19 -76 10 -103 -10 -27
-10 -37 3 -55 19 -27 21 -42 4 -32 -7 5 -5 -3 4 -16 9 -14 22 -24 28 -22 6 1
9 -2 5 -8 -3 -5 5 -25 19 -42 42 -56 49 -86 30 -126 -14 -31 -15 -44 -4 -108
7 -40 10 -83 6 -97 -8 -33 -332 -269 -454 -331 -29 -15 -223 -87 -430 -160
-207 -74 -424 -152 -482 -175 -135 -52 -167 -58 -390 -66 -141 -5 -254 -17
-475 -50 -394 -60 -504 -73 -685 -84 -197 -13 -324 -5 -420 24 -107 33 -252
62 -345 70 -92 8 -302 -9 -389 -31 -67 -16 -158 -62 -207 -104 -28 -24 -32
-31 -23 -47 16 -26 68 -28 128 -4 58 23 144 41 184 40 21 -1 16 -4 -19 -13
-132 -37 -278 -171 -248 -229 11 -19 35 -20 83 -1 19 7 18 5 -3 -30 -22 -35
-23 -38 -6 -56 25 -28 36 -25 91 20 30 25 73 48 113 60 67 21 161 27 161 10 0
-5 -6 -10 -12 -10 -24 0 -123 -51 -151 -78 -34 -32 -56 -72 -50 -89 7 -21 51
-15 91 12 75 49 134 57 397 50 209 -5 247 -4 295 11 89 27 295 29 626 4 251
-19 347 -21 681 -17 423 5 452 8 633 69 129 43 423 117 433 108 20 -17 39
-248 34 -400 -7 -185 -14 -242 -72 -600 -59 -364 -75 -506 -75 -675 l0 -141
-61 -13 c-33 -8 -132 -49 -220 -92 -88 -43 -178 -83 -202 -90 -60 -16 -111
-48 -202 -129 -87 -78 -157 -130 -174 -130 -16 0 -14 -14 11 -64 20 -42 20
-46 5 -70 -23 -34 -22 -40 13 -88 17 -22 30 -44 30 -47 0 -4 -15 -15 -32 -26
-99 -57 -518 -328 -608 -393 -255 -183 -462 -376 -520 -483 -29 -55 -34 -73
-33 -129 1 -124 73 -262 217 -417 72 -77 323 -270 551 -423 44 -30 121 -84
170 -121 50 -36 284 -194 520 -351 594 -393 782 -537 995 -762 201 -212 266
-273 370 -346 131 -91 273 -198 323 -242 31 -27 41 -45 52 -96 18 -74 21 -135
11 -179 -7 -27 -4 -36 17 -57 15 -15 37 -26 53 -26 l26 0 -5 -543 c-3 -298
-10 -594 -16 -657 -31 -317 -65 -481 -129 -610 -56 -115 -204 -262 -391 -390
-163 -110 -371 -300 -371 -338 0 -35 40 -72 85 -78 22 -4 59 -15 81 -25 35
-17 46 -18 68 -8 20 10 29 10 38 1 17 -17 73 -15 88 3 12 14 15 13 35 -5 26
-24 58 -26 80 -4 15 15 18 15 36 -5 24 -25 61 -27 80 -4 18 21 107 63 135 63
12 0 74 32 139 71 156 94 219 125 289 143 75 20 115 44 143 85 51 76 55 147
13 272 -43 131 -54 206 -47 334 8 147 27 235 163 735 64 234 143 531 177 660
l61 235 0 180 c1 205 -14 296 -84 540 -56 193 -97 404 -110 566 -14 183 0 334
50 542 72 304 112 525 132 731 10 98 16 130 28 134 8 3 83 34 165 69 83 36
185 73 229 83 43 11 87 27 98 37 40 36 78 130 94 235 24 151 15 425 -19 568
-62 261 -183 544 -498 1171 -288 573 -292 584 -292 834 0 131 4 178 22 260 40
172 112 342 206 485 24 36 65 113 91 173 44 98 49 105 60 86 14 -28 51 -48 87
-49 37 0 95 27 108 52 9 17 7 18 -16 12 -17 -4 -32 -1 -44 10 -17 15 -17 21
-5 54 7 20 13 58 14 85 0 26 5 47 10 47 6 0 10 -15 10 -33 0 -51 13 -54 27 -5
12 42 12 42 10 -34 -1 -43 1 -78 5 -78 5 0 8 8 9 18 0 9 3 12 5 6 4 -9 14 -9
37 -1 18 5 38 11 45 13 6 2 12 16 12 31 l0 28 15 -29 c8 -15 15 -40 15 -55 0
-43 17 -6 30 68 7 36 19 73 27 82 7 9 16 39 19 66 5 40 10 49 25 48 10 -1 21
-4 24 -7 4 -3 -4 -43 -16 -89 -17 -61 -20 -84 -11 -87 7 -2 10 -8 6 -13 -13
-21 16 -7 44 22 18 18 39 59 54 103 14 42 29 71 35 69 7 -3 13 9 15 28 2 24 9
35 28 41 21 7 68 -14 285 -125 143 -73 294 -155 335 -183 41 -27 109 -73 150
-101 128 -87 269 -150 560 -253 266 -94 476 -187 545 -242 39 -30 62 -86 81
-189 9 -52 29 -123 44 -159 16 -36 36 -105 45 -154 9 -49 25 -107 36 -128 17
-34 23 -38 57 -38 83 0 106 56 73 180 -27 101 -27 120 2 120 32 0 81 -27 156
-85 121 -94 121 -94 121 -177 0 -92 -19 -167 -71 -277 -43 -92 -44 -122 -7
-142 19 -10 30 -2 128 101 l107 112 18 -29 c9 -15 27 -36 39 -45 22 -18 81
-24 90 -9 3 5 -14 72 -39 149 -42 133 -72 268 -63 277 13 13 50 -34 74 -96 29
-72 69 -119 105 -119 26 0 25 26 -7 129 -47 155 -25 126 -446 558 -218 223
-249 251 -370 332 -73 49 -268 189 -433 313 -480 358 -469 351 -660 418 -172
60 -385 172 -635 335 -95 61 -96 62 -108 114 -13 58 -47 114 -65 108 -6 -2
-19 11 -29 29 -13 25 -16 47 -12 101 l6 68 -88 100 c-48 55 -95 118 -105 140
-22 48 -25 30 -4 -21 13 -33 13 -35 -1 -30 -9 3 -20 6 -24 6 -5 0 -10 26 -12
57 -3 53 -5 58 -37 77 -25 14 -36 16 -39 8 -5 -17 -47 -15 -82 3 -49 26 -76
118 -111 378 -10 84 -21 161 -24 173 -3 13 7 36 26 61 40 52 72 142 53 150
-10 4 -10 11 -2 31 6 15 12 70 14 122 2 52 6 116 9 142 5 32 2 56 -7 76 -8 15
-13 44 -10 63 2 23 -1 39 -12 48 -8 7 -12 20 -9 28 5 14 0 15 -30 10 -41 -6
-43 -5 -24 15 8 7 17 26 21 41 5 20 3 27 -9 27 -11 0 -15 11 -15 45 0 56 -24
130 -57 174 -14 18 -58 53 -97 78 -39 25 -89 62 -111 83 -49 45 -152 85 -196
76 -19 -3 -42 0 -60 10 -20 10 -41 13 -60 9 -18 -4 -36 -2 -44 5 -12 10 -22 9
-49 -4 -43 -20 -80 -21 -96 -1 -7 8 -15 15 -19 14 -3 -1 -46 -7 -94 -14z
m-533 -1007 c-6 -10 -154 -213 -231 -317 -2 -2 -5 -2 -7 0 -9 8 33 109 63 153
45 65 141 167 152 160 5 -3 9 0 9 5 0 6 5 11 11 11 5 0 7 -6 3 -12z m-91 -161
c-21 -33 -116 -157 -120 -157 -7 0 31 59 77 118 37 47 63 71 43 39z m31 -34
c-53 -82 -85 -144 -91 -176 -5 -35 2 -56 47 -135 l22 -37 -31 34 c-17 19 -37
55 -46 80 -15 44 -14 46 14 108 30 63 87 153 98 153 3 0 -3 -12 -13 -27z
m1457 -130 c11 -28 39 -209 38 -248 -1 -35 -19 21 -40 120 -26 125 -25 197 2
128z m-1456 -50 c0 -38 4 -79 8 -93 l8 -25 -20 24 c-14 16 -21 37 -21 66 0 38
14 95 23 95 1 0 2 -30 2 -67z m-146 10 c-4 -43 3 -64 42 -122 23 -34 39 -64
36 -67 -3 -3 -18 14 -35 38 -16 24 -39 52 -51 62 -23 21 -27 56 -11 87 13 24
22 25 19 2z m1625 -233 c4 -24 3 -28 -2 -15 -14 31 -24 83 -13 65 5 -8 11 -31
15 -50z m-1482 -102 c17 -27 33 -48 34 -48 5 0 -8 34 -19 48 -5 7 -7 15 -4 19
4 3 27 -16 51 -43 40 -43 45 -54 46 -96 0 -26 -4 -58 -10 -73 -7 -19 -6 -35 6
-63 9 -20 27 -68 40 -107 21 -61 23 -65 19 -27 -4 28 -2 41 5 37 14 -9 12 -57
-3 -95 l-14 -32 -6 51 c-3 28 -31 113 -61 188 -30 76 -59 157 -66 181 -8 31
-26 58 -64 95 -30 29 -59 63 -66 77 -19 39 75 -56 112 -112z m-12 61 c0 -5
-11 -2 -25 7 -14 9 -25 20 -25 25 0 5 11 2 25 -7 14 -9 25 -20 25 -25z m1518
-206 c27 -37 18 -41 -34 -17 -37 18 -56 60 -34 74 9 6 9 13 1 28 -6 11 -11 27
-11 34 1 7 13 -9 27 -37 14 -27 37 -65 51 -82z m-1558 -7 c0 -18 -17 8 -24 34
l-7 25 15 -25 c9 -14 15 -29 16 -34z m60 -6 c0 -6 22 -68 49 -138 27 -70 52
-149 55 -177 l6 -50 -18 60 c-11 33 -37 105 -59 160 -47 117 -58 155 -43 155
5 0 10 -5 10 -10z m123 -70 c4 -37 3 -50 -3 -40 -9 14 -15 109 -6 99 2 -2 6
-29 9 -59z m1459 23 c8 -10 18 -30 21 -44 13 -54 67 -112 182 -196 29 -21 30
-22 10 -37 -16 -12 -17 -17 -8 -27 10 -10 18 -10 38 -1 25 11 26 11 23 -10 -2
-17 -9 -22 -23 -20 -46 8 -130 57 -185 109 -75 69 -106 117 -109 170 -1 6 -13
25 -27 42 l-26 31 45 0 c29 0 49 -6 59 -17z m-1616 -23 c-6 19 -5 21 3 10 14
-20 43 -121 37 -127 -3 -3 -8 7 -12 23 -6 24 -8 25 -14 10 -6 -17 -9 -14 -28
16 -12 19 -22 48 -22 64 l1 29 21 -25 21 -25 -7 25z m1733 -63 c22 -29 45 -65
51 -81 l11 -29 -33 25 c-48 37 -98 106 -98 135 0 32 12 23 69 -50z m-1749 -28
c0 -6 -4 -7 -10 -4 -5 3 -10 11 -10 16 0 6 5 7 10 4 6 -3 10 -11 10 -16z
m1881 -19 l44 -40 -44 15 c-51 18 -71 32 -71 51 0 25 26 15 71 -26z m-1785
-35 c14 -34 18 -52 9 -44 -9 9 -35 79 -30 79 3 0 13 -16 21 -35z m1934 -129
c0 -28 -15 -43 -23 -23 -3 6 -14 37 -26 67 l-21 55 35 -37 c20 -22 35 -48 35
-62z m-1920 -77 c10 -42 10 -61 1 -77 -17 -33 -27 -27 -40 22 -14 56 -14 77 0
113 13 35 21 22 39 -58z m1979 -161 c23 -47 20 -59 -10 -51 -23 6 -39 40 -39
85 0 25 2 28 14 19 8 -7 24 -31 35 -53z m12 29 c12 -22 12 -22 -10 -3 -11 11
-21 23 -21 28 0 14 19 -1 31 -25z m-341 -632 c0 -16 -5 -37 -10 -45 -7 -11
-10 3 -10 45 0 42 3 56 10 45 5 -8 10 -28 10 -45z m-53 -167 c-3 -8 -6 -5 -6
6 -1 11 2 17 5 13 3 -3 4 -12 1 -19z m-2085 -3666 c15 -6 42 -8 62 -5 20 3 54
-1 82 -11 26 -9 61 -16 78 -16 17 0 52 -10 77 -22 l47 -23 6 -65 c3 -36 11
-202 16 -370 21 -606 48 -882 119 -1173 14 -60 16 -77 5 -73 -51 20 -108 25
-229 23 -133 -2 -143 -1 -197 25 -116 54 -241 161 -366 313 -37 44 -143 172
-237 285 -94 113 -206 250 -250 305 -162 206 -253 294 -402 395 l-73 49 58 16
c203 57 489 160 828 298 l180 73 85 -7 c46 -4 96 -12 111 -17z m623 -2288 c14
-55 29 -114 35 -130 l10 -29 -20 23 c-27 33 -60 143 -66 222 -6 84 8 55 41
-86z"/>
<path d="M4331 10990 c0 -8 4 -24 9 -35 5 -13 9 -14 9 -5 0 8 -4 24 -9 35 -5
13 -9 14 -9 5z"/>
<path d="M4360 10905 c0 -5 5 -17 10 -25 5 -8 10 -10 10 -5 0 6 -5 17 -10 25
-5 8 -10 11 -10 5z"/>
<path d="M5740 10985 c0 -5 9 -21 20 -35 11 -14 20 -20 20 -15 0 6 -9 21 -20
35 -11 14 -20 21 -20 15z"/>
<path d="M6057 10943 c-2 -5 2 -19 9 -33 l14 -25 0 27 c0 26 -15 46 -23 31z"/>
</g>
</svg>
